PathFileType	4	(X/Y/Z)	/Users/niels/Desktop/University/Third Semester/Perception and Action/Exam/Gymnastics Motion Tracking/Code for Gym Tracking/Scripts/Analyzed Data/Start Salto/st_salto_good_id12_1_Sports2D/st_salto_good_id12_1_Sports2D_px_person00.trc
DataRate	CameraRate	NumFrames	NumMarkers	Units	OrigDataRate	OrigDataStartFrame	OrigNumFrames
29.83050847457627	29.83050847457627	10	22	m	29.83050847457627	66	177
Frame#	Time	Hip			RHip			RKnee			RAnkle			RBigToe			RSmallToe			RHeel			LHip			LKnee			LAnkle			LBigToe			LSmallToe			LHeel			Neck			Head			Nose			RShoulder			RElbow			RWrist			LShoulder			LElbow			LWrist		
		X1	Y1	Z1	X2	Y2	Z2	X3	Y3	Z3	X4	Y4	Z4	X5	Y5	Z5	X6	Y6	Z6	X7	Y7	Z7	X8	Y8	Z8	X9	Y9	Z9	X10	Y10	Z10	X11	Y11	Z11	X12	Y12	Z12	X13	Y13	Z13	X14	Y14	Z14	X15	Y15	Z15	X16	Y16	Z16	X17	Y17	Z17	X18	Y18	Z18	X19	Y19	Z19	X20	Y20	Z20	X21	Y21	Z21	X22	Y22	Z22
66	2.2125	0.982412607393249	-0.23234354342940847	0.0	0.979702895866008	-0.23615736122262865	0.0	0.851562011826284	-0.3121767376013596	0.0	0.7155483772026324	-0.2930751929881352	0.0	0.6651311547922151	-0.34072883731876435	0.0	0.6626511610769542	-0.3297775788901809	0.0	0.7024761912569523	-0.28281813790775034	0.0	0.9701491641944701	-0.22998308297574693	0.0	0.8459505023108312	-0.2824940370365032	0.0	0.7876578185692582	-0.1587171075601652	0.0	0.7103997835343479	-0.16961858096080137	0.0	0.7192663369050146	-0.16662975203480554	0.0	0.7911150859270234	-0.13934398054521988	0.0	1.048585423972382	-0.4271463727324761	0.0	1.024959835914143	-0.5032114342246411	0.0	0.9951759816249846	-0.4495247391520667	0.0	1.0712330816633753	-0.42214983042548965	0.0	1.1055187691961086	-0.38598087005343296	0.0	1.0039674054888297	-0.3732240478581063	0.0	1.0295573133377873	-0.41398674570658195	0.0	1.0653121195965376	-0.3624891654634674	0.0	0.9922354448517134	-0.36552246345589057	0.0
67	2.2460227272727273	0.999377503013019	-0.23266819577796768	0.0	0.9973807979735037	-0.23563176517316597	0.0	0.8639103889558566	-0.30157826676630267	0.0	0.7280887690903568	-0.27325848282457504	0.0	0.672122274539919	-0.32005521720507313	0.0	0.6701599059172256	-0.3081170662262077	0.0	0.7142214334973025	-0.26193007792667355	0.0	0.988372754377909	-0.23004348104593175	0.0	0.8592240393937212	-0.26826723587206464	0.0	0.8103943844718784	-0.1402335056557174	0.0	0.740708531290209	-0.1500941067584143	0.0	0.7508158190357751	-0.14548929757212728	0.0	0.8143239396963704	-0.11967961536218498	0.0	1.0506305760074695	-0.43098143838323877	0.0	1.0167631704871367	-0.5027673360248782	0.0	0.995377805019576	-0.4485776918596771	0.0	1.0720543318570457	-0.4258001009825338	0.0	1.1114259415277912	-0.38456916161959703	0.0	1.0102993523877704	-0.3648845684637599	0.0	1.031215606480809	-0.4182334534056892	0.0	1.072494621236589	-0.3607071501987704	0.0	0.9993603350820912	-0.3590732341040434	0.0
68	2.2795454545454548	1.0163046572480112	-0.23407694909553634	0.0	1.0151692717174228	-0.23593063410072201	0.0	0.8764244631055534	-0.29143895381643586	0.0	0.7413248805266561	-0.253642009153292	0.0	0.6804414930361671	-0.2990620891151076	0.0	0.6788359152141918	-0.286435625855718	0.0	0.7269786731941983	-0.2415268316027371	0.0	1.006552795655925	-0.2310316379761953	0.0	0.8727463644627733	-0.25526966288162695	0.0	0.8340388945870948	-0.12329500705793019	0.0	0.7747397453021767	-0.1317827357038258	0.0	0.7860484119104512	-0.12443572028455674	0.0	0.8380576284605225	-0.10273443384057611	0.0	1.0509310321957983	-0.43405548143453276	0.0	1.008596797124208	-0.5018098616754508	0.0	0.995063602863842	-0.4469933326068406	0.0	1.0720208354921295	-0.4284860373626715	0.0	1.1167337493427685	-0.38411200477868174	0.0	1.0168549674842755	-0.3573528818616234	0.0	1.0321447758843783	-0.42139149690589334	0.0	1.0791677823056336	-0.3593458656974139	0.0	1.0061788920364467	-0.3527214170946459	0.0
69	2.3130681818181817	1.0329297910581847	-0.2359199974666852	0.0	1.0324578020918587	-0.23650433020859377	0.0	0.8889589322529614	-0.28157996294438953	0.0	0.7553527312177558	-0.23415615652814226	0.0	0.6905762037201215	-0.2771642948742101	0.0	0.6892908364039739	-0.26454602038202535	0.0	0.7410262621932493	-0.22165518057163294	0.0	1.024217157935351	-0.2324979457519529	0.0	0.8866626022869282	-0.24397541703635794	0.0	0.8585129712069197	-0.10837755548736973	0.0	0.8106786184455025	-0.1146172082950969	0.0	0.8220525894330272	-0.10316874904200736	0.0	0.8623765828426574	-0.08918660303980981	0.0	1.0497506282750253	-0.43627422422511736	0.0	1.000892740944458	-0.5004395661871647	0.0	0.9941852679984527	-0.44469734538439465	0.0	1.0713092432687685	-0.43002057121103704	0.0	1.1212839558278898	-0.384420076537907	0.0	1.0232558026215344	-0.3506373676413261	0.0	1.032616161346824	-0.42340792838877495	0.0	1.0849803004034968	-0.35842078313900166	0.0	1.0124788840533294	-0.3465043146660448	0.0
70	2.346590909090909	1.049248095172046	-0.23768052687619198	0.0	1.049199988055456	-0.23696191394932975	0.0	0.9016835313936442	-0.2716014194699199	0.0	0.7703627230528585	-0.21436868079379576	0.0	0.7029378012707831	-0.253953059421304	0.0	0.7020646018923378	-0.2421140457707682	0.0	0.7564836332430459	-0.2016175611948305	0.0	1.0414273079674838	-0.23406069164198373	0.0	0.9013204626765555	-0.23428463794530505	0.0	0.8841788962293532	-0.09563356944966489	0.0	0.8466463326629299	-0.09810304317676427	0.0	0.8560658884327021	-0.08173947707053798	0.0	0.8878558136880266	-0.0788877813152704	0.0	1.0477524836716665	-0.437575005389695	0.0	0.9938442967823949	-0.49864253368903994	0.0	0.9928049618566858	-0.4417716612484585	0.0	1.070027328073455	-0.43037465638175754	0.0	1.1249867591724982	-0.3851545970967625	0.0	1.0294241881092991	-0.3446173378795651	0.0	1.0331287529381092	-0.4243913394851631	0.0	1.0897684424624352	-0.3579086026441058	0.0	1.0184062801437206	-0.34060300635891133	0.0
71	2.3801136363636366	1.0653144339608438	-0.23912776353111376	0.0	1.0655850888128782	-0.2371502370792267	0.0	0.9148232687465834	-0.2610654585254205	0.0	0.7865976876423065	-0.19397871941391803	0.0	0.7175738680739331	-0.22959691576583333	0.0	0.7173456558950602	-0.21887258549152494	0.0	0.7733904928252664	-0.1807297295527285	0.0	1.0583466514322937	-0.23551375622964543	0.0	0.9169978353060291	-0.22579681417785008	0.0	0.9113091532574075	-0.08527403503943316	0.0	0.8796253237966541	-0.08185098869343328	0.0	0.8854834787946205	-0.0614431384494171	0.0	0.9150718801085651	-0.07116643131441065	0.0	1.0455688254225086	-0.43792432761744154	0.0	0.9875027828331042	-0.49603189063467285	0.0	0.9911931100736159	-0.43833254619517326	0.0	1.0682917239965215	-0.42979685507621285	0.0	1.1278999764061344	-0.38596824775375005	0.0	1.035494961679811	-0.33920307882966133	0.0	1.0340601827168348	-0.4244640142097996	0.0	1.0937928081395472	-0.3578394039482051	0.0	1.0244056544423277	-0.33534129520777767	0.0
72	2.4136363636363636	1.0809417260195462	-0.2402456459851767	0.0	1.0814903880409183	-0.23712906650518778	0.0	0.928363740706387	-0.24979225399407662	0.0	0.8041263009177644	-0.17330547357247772	0.0	0.7341142449349134	-0.20496112283289286	0.0	0.7348809169962641	-0.19510773361934672	0.0	0.7916036001661227	-0.15917335094029508	0.0	1.0747406606973295	-0.2367848044363836	0.0	0.9335153529937842	-0.21811341099355672	0.0	0.9394887823374355	-0.07760155882556548	0.0	0.9052201054662492	-0.06666380732373654	0.0	0.9074761303082968	-0.04449984234659602	0.0	0.9438618924503105	-0.06524709269845216	0.0	1.043575897737756	-0.43732944459232026	0.0	0.9818665737923679	-0.4920936742092391	0.0	0.9897829293821762	-0.43446618643854457	0.0	1.0662985643933554	-0.428766756951304	0.0	1.1301884683610708	-0.38660611260712524	0.0	1.0415681272934096	-0.334432513795407	0.0	1.0355387938117788	-0.4237019985239993	0.0	1.0975461553597452	-0.3582840159954893	0.0	1.0309162350509733	-0.3310727453174775	0.0
73	2.447159090909091	1.0957597063216296	-0.24119293274957992	0.0	1.0964953254285872	-0.23714338101834428	0.0	0.9421587495014365	-0.23795062335346684	0.0	0.8228449103589198	-0.15311524532643941	0.0	0.752090637644827	-0.1809314513474654	0.0	0.7542580421847416	-0.17153408532948766	0.0	0.8109329364702904	-0.1379283539220315	0.0	1.0901283918061484	-0.23792427415615755	0.0	0.9503248999941721	-0.21090122755774282	0.0	0.9679212047909203	-0.07248369895394913	0.0	0.9196158119565847	-0.0550493635352172	0.0	0.919741073812973	-0.03248969142325406	0.0	0.9734403181589398	-0.06041384701387526	0.0	1.0418990978568292	-0.4359113037196318	0.0	0.9768174554802134	-0.4867059830132493	0.0	0.9889277914017499	-0.43022456481617466	0.0	1.0643549453346342	-0.4277469066622404	0.0	1.1321160965961707	-0.38690642042452117	0.0	1.0475975722064972	-0.33031407550923203	0.0	1.0375342398610172	-0.4222728884062025	0.0	1.1014632494498464	-0.35919252400332796	0.0	1.0380406731996965	-0.3278240888046067	0.0
74	2.4806818181818184	1.1095247251358171	-0.242295000498145	0.0	1.1102883330357916	-0.23760059370722614	0.0	0.9562769288108114	-0.22593248745565273	0.0	0.8427341944373918	-0.13403896871449555	0.0	0.7712456416522104	-0.15768270779960114	0.0	0.7752115878075868	-0.1486342282037655	0.0	0.8314568583306602	-0.11795495451130915	0.0	1.1042178211106282	-0.23912826096308587	0.0	0.9670605768626348	-0.20381104173140552	0.0	0.9962121529303567	-0.06906327924118069	0.0	0.9220191989527585	-0.049722083569583284	0.0	0.9220869370111341	-0.02556667008495794	0.0	1.0031159728724888	-0.056044723435581145	0.0	1.0405350754577058	-0.433874214824236	0.0	0.972123141663601	-0.4801944283844901	0.0	0.9887627661935768	-0.4255529580828722	0.0	1.0628035149044464	-0.42694289959249837	0.0	1.1340167460604333	-0.3867945402748659	0.0	1.0535288166280423	-0.32666792675380346	0.0	1.0399699977418912	-0.4204454200723718	0.0	1.1057578932267549	-0.3603117023845775	0.0	1.045509684597469	-0.32512868339456386	0.0
75	2.5142045454545454	1.1223548852871057	-0.24396915428007598	0.0	1.1230068936565452	-0.23900728617724085	0.0	0.9711626564926661	-0.21419169934084079	0.0	0.8640825197906261	-0.11616690620235863	0.0	0.7917100905604872	-0.13465728497584598	0.0	0.7978295296943977	-0.126228214506634	0.0	0.853591011595818	-0.09956398292464783	0.0	1.1171228200755117	-0.24074631438184577	0.0	0.983913052740616	-0.19654460501344254	0.0	1.024714817957128	-0.06618386892044184	0.0	0.9166023850172813	-0.05041776962896217	0.0	0.9183542066591461	-0.022907360502028823	0.0	1.0328190463124058	-0.05175107462654185	0.0	1.0394959584544785	-0.4313580909231577	0.0	0.9676380669505511	-0.4728822681669609	0.0	0.9892547961396718	-0.4202309373750732	0.0	1.0618731764652423	-0.426255423576906	0.0	1.1361474263678994	-0.3862919927799697	0.0	1.0594798357119517	-0.3232079660482896	0.0	1.0427696732850635	-0.4183727451677801	0.0	1.1104380817646788	-0.36136899669703754	0.0	1.0530259852660864	-0.32233996923570407	0.0
